<?xml version="1.0" encoding="utf-8"?>
<!-- Generator: Adobe Illustrator 23.1.0, SVG Export Plug-In . SVG Version: 6.00 Build 0)  -->
<svg version="1.1" id="Layer_1" xmlns="http://www.w3.org/2000/svg" xmlns:xlink="http://www.w3.org/1999/xlink" x="0px" y="0px"
	 viewBox="0 0 83.9 121.9" style="enable-background:new 0 0 83.9 121.9;" xml:space="preserve">
<style type="text/css">
	.st0{fill:#FFFFFF;}
	.st1{fill:#3487C8;}
</style>
<path class="st0" d="M49.2,6.8c20.7,0,37.5,16.8,37.5,37.5H74.5c0-14-11.3-25.3-25.3-25.3V6.8z"/>
<path class="st1" d="M33.8,3.1l-8.3,8.3c-0.8,0.8-0.2,2.1,0.9,2.1h19.6c20.7,0,37.5,16.8,37.5,37.5v56.5c-5.1,3.8-9.2,8.7-12.2,14.4
	V51c0-14-11.3-25.3-25.3-25.3H26.3c-1.1,0-1.6,1.3-0.9,2.1l8.3,8.3c0.8,0.8,0.2,2.1-0.9,2.1H20.6c-0.3,0-0.6-0.1-0.9-0.4L2.4,20.4
	c-0.5-0.5-0.5-1.2,0-1.7L19.7,1.4C20,1.1,20.3,1,20.6,1h12.3C34,1,34.6,2.3,33.8,3.1z"/>
</svg>
